# xmcd CD database file
#
# Track frame offsets:
#	183
#	14978
#	27788
#	43630
#	58688
#	71768
#	86148
#	99880
#	115425
#	132025
#	146048
#	160640
#	172845
#	184738
#	198458
#	213405
#	227313
#	239953
#	252125
#	265905
#	280758
#	293468
#
# Disc length: 4103 seconds
#
# Revision: 0
# Processed by: cddbd v1.4PL0 Copyright (c) Steve Scherf et al.
# Submitted via: CDex 1.51
#
DISCID=3d100516
DTITLE=Coleman Hawkins - 1926 - 1940
DYEAR=1900
DGENRE=Jazz
TTITLE0=The Stampede
TTITLE1=Sensation
TTITLE2=One Hour
TTITLE3=Hello Lola
TTITLE4=Buggle Call Rag
TTITLE5=Sugar Foot Stomp
TTITLE6=Jamaica Shout
TTITLE7=Heartbreaker Blues
TTITLE8=I've Got To Sing
TTITLE9=Honeysuckle Rose
TTITLE10=Stardust
TTITLE11=Netcha's Dream
TTITLE12=A Strange Fact
TTITLE13=Crazy Rhythm
TTITLE14=Out Of Nowhere
TTITLE15=Way Down Yonder In New Orleans
TTITLE16=Blues Evermore
TTITLE17=The Darkmore Strutter's Ball
TTITLE18=Body And Soul
TTITLE19=When Day Is Done
TTITLE20=My Blue Heaven
TTITLE21=Rocky Comfort
EXTD=
EXTT0=
EXTT1=
EXTT2=
EXTT3=
EXTT4=
EXTT5=
EXTT6=
EXTT7=
EXTT8=
EXTT9=
EXTT10=
EXTT11=
EXTT12=
EXTT13=
EXTT14=
EXTT15=
EXTT16=
EXTT17=
EXTT18=
EXTT19=
EXTT20=
EXTT21=
PLAYORDER=
